<svg width="1645" height="386" viewBox="0 0 1645 386" fill="none" xmlns="http://www.w3.org/2000/svg">
<g clip-path="url(#clip0_24_2)">
<path d="M-0.000976562 96.2947C55.7659 64.109 111.113 32.1514 166.82 0.00170898C183.597 9.66221 200.349 19.3227 217.414 29.1512V163.57C256.284 186.023 294.986 208.381 333.736 230.762V289.673C278.329 321.666 222.683 353.792 166.868 386.014C111.185 353.864 55.6819 321.822 -0.000976562 289.685V96.2947ZM146.611 91.3144C120.449 106.411 95.62 120.752 71.1867 134.841V248.019C103.948 267.28 136.266 286.301 168.668 305.358C193.761 290.849 218.686 276.448 244.284 261.639C211.306 242.246 179.168 223.345 146.611 204.204V91.3024V91.3144Z" fill="#0C0C10"/>
<path d="M264.9 57.6406C287.942 70.9253 310.527 83.946 333.016 96.9067V175.811C310.059 162.586 287.57 149.649 264.9 136.593V57.6406Z" fill="#FF9315"/>
</g>
<path d="M437.766 158.393H468.253V246H437.766V158.393ZM453.009 147.881C447.987 147.881 444.015 146.713 441.095 144.376C438.175 142.04 436.715 138.828 436.715 134.74C436.715 130.651 438.175 127.439 441.095 125.103C444.015 122.767 447.987 121.599 453.009 121.599C458.032 121.599 462.004 122.767 464.924 125.103C467.844 127.439 469.304 130.651 469.304 134.74C469.304 138.828 467.844 142.04 464.924 144.376C462.004 146.713 458.032 147.881 453.009 147.881ZM490.98 158.393H521.467V173.637H523.044C524.446 170.483 526.548 167.68 529.352 165.227C531.688 163.124 534.9 161.197 538.988 159.445C543.077 157.576 548.275 156.641 554.582 156.641C559.839 156.641 564.628 157.401 568.95 158.919C573.388 160.321 577.185 162.54 580.339 165.577C583.492 168.614 585.945 172.527 587.698 177.316C589.45 181.989 590.326 187.596 590.326 194.137V246H559.839V202.898C559.839 196.59 558.145 191.742 554.757 188.355C551.487 184.967 546.814 183.274 540.74 183.274C534.082 183.274 529.176 185.143 526.023 188.881C522.986 192.502 521.467 197.174 521.467 202.898V246H490.98V158.393ZM598.36 158.393H630.423L650.398 221.12H651.975L671.949 158.393H704.013L673.351 246H629.022L598.36 158.393ZM764.336 247.752C756.743 247.752 749.793 246.818 743.485 244.949C737.178 242.963 731.746 240.101 727.19 236.363C722.635 232.509 719.072 227.778 716.502 222.171C714.049 216.447 712.823 209.789 712.823 202.197C712.823 194.721 714.049 188.121 716.502 182.398C719.072 176.674 722.635 171.943 727.19 168.205C731.746 164.351 737.178 161.489 743.485 159.62C749.793 157.634 756.685 156.641 764.16 156.641C771.519 156.641 778.294 157.634 784.485 159.62C790.793 161.489 796.224 164.351 800.78 168.205C805.335 171.943 808.898 176.674 811.468 182.398C814.038 188.121 815.323 194.721 815.323 202.197C815.323 202.898 815.264 203.598 815.147 204.299C815.147 205 815.089 205.643 814.972 206.227C814.855 206.927 814.797 207.57 814.797 208.154H744.712C744.828 213.41 746.347 217.849 749.267 221.47C752.304 224.974 757.327 226.727 764.336 226.727C767.489 226.727 770.059 226.318 772.045 225.5C774.147 224.566 775.841 223.514 777.126 222.346C778.528 221.061 779.696 219.543 780.63 217.791H813.22C812.169 223.398 809.716 228.42 805.861 232.859C804.226 234.728 802.182 236.597 799.729 238.466C797.392 240.218 794.531 241.795 791.143 243.197C787.756 244.598 783.843 245.708 779.404 246.526C774.965 247.343 769.942 247.752 764.336 247.752ZM782.382 192.56C782.382 190.925 781.974 189.231 781.156 187.479C780.455 185.727 779.345 184.15 777.827 182.748C776.425 181.23 774.556 180.003 772.22 179.069C770.001 178.134 767.314 177.667 764.16 177.667C761.007 177.667 758.261 178.134 755.925 179.069C753.589 180.003 751.603 181.171 749.968 182.573C748.45 183.975 747.281 185.551 746.464 187.304C745.763 189.056 745.413 190.808 745.413 192.56H782.382ZM834.562 158.393H865.049V173.637H866.626C868.027 170.483 870.13 167.68 872.933 165.227C875.27 163.124 878.482 161.197 882.57 159.445C886.658 157.576 891.856 156.641 898.164 156.641C903.42 156.641 908.21 157.401 912.532 158.919C916.97 160.321 920.767 162.54 923.92 165.577C927.074 168.614 929.527 172.527 931.279 177.316C933.031 181.989 933.908 187.596 933.908 194.137V246H903.42V202.898C903.42 196.59 901.727 191.742 898.339 188.355C895.069 184.967 890.396 183.274 884.322 183.274C877.664 183.274 872.758 185.143 869.604 188.881C866.567 192.502 865.049 197.174 865.049 202.898V246H834.562V158.393ZM1002.48 247.752C988.466 247.752 978.012 244.949 971.12 239.342C964.228 233.735 960.782 224.566 960.782 211.833V181.872H948.868V166.103L975.325 140.872H991.269V158.393H1016.15V181.872H991.269V207.804C991.269 213.761 992.729 217.791 995.65 219.893C998.687 221.879 1002.54 222.872 1007.21 222.872C1008.85 222.872 1010.37 222.755 1011.77 222.521C1013.29 222.288 1014.57 221.996 1015.62 221.645C1016.91 221.178 1017.96 220.711 1018.78 220.244V244.774C1017.61 245.358 1016.21 245.883 1014.57 246.35C1013.17 246.701 1011.42 246.993 1009.32 247.226C1007.33 247.577 1005.05 247.752 1002.48 247.752ZM1080.54 247.752C1073.06 247.752 1066.17 246.818 1059.86 244.949C1053.55 242.963 1048.12 240.101 1043.57 236.363C1039.01 232.509 1035.45 227.778 1032.88 222.171C1030.43 216.447 1029.2 209.789 1029.2 202.197C1029.2 194.721 1030.43 188.121 1032.88 182.398C1035.45 176.674 1039.01 171.943 1043.57 168.205C1048.12 164.351 1053.55 161.489 1059.86 159.62C1066.17 157.634 1073.06 156.641 1080.54 156.641C1088.01 156.641 1094.9 157.634 1101.21 159.62C1107.52 161.489 1112.95 164.351 1117.51 168.205C1122.06 171.943 1125.57 176.674 1128.02 182.398C1130.59 188.121 1131.87 194.721 1131.87 202.197C1131.87 209.789 1130.59 216.447 1128.02 222.171C1125.57 227.778 1122.06 232.509 1117.51 236.363C1112.95 240.101 1107.52 242.963 1101.21 244.949C1094.9 246.818 1088.01 247.752 1080.54 247.752ZM1080.54 221.47C1086.61 221.47 1091.46 219.718 1095.08 216.214C1098.82 212.71 1100.69 208.037 1100.69 202.197C1100.69 196.356 1098.82 191.684 1095.08 188.18C1091.46 184.675 1086.61 182.923 1080.54 182.923C1074.46 182.923 1069.56 184.675 1065.82 188.18C1062.2 191.684 1060.39 196.356 1060.39 202.197C1060.39 208.037 1062.2 212.71 1065.82 216.214C1069.56 219.718 1074.46 221.47 1080.54 221.47ZM1151.11 158.393H1181.6V173.637H1183.17C1184.69 170.483 1186.85 167.68 1189.66 165.227C1191.99 163.124 1195.03 161.197 1198.77 159.445C1202.62 157.576 1207.53 156.641 1213.48 156.641C1214.42 156.641 1215.35 156.7 1216.29 156.817C1217.22 156.933 1218.04 157.05 1218.74 157.167C1219.56 157.284 1220.32 157.401 1221.02 157.517V190.983C1219.85 190.399 1218.51 189.873 1216.99 189.406C1215.59 189.056 1213.84 188.705 1211.73 188.355C1209.75 188.004 1207.41 187.829 1204.72 187.829C1196.66 187.829 1190.77 189.873 1187.03 193.962C1183.41 198.05 1181.6 203.131 1181.6 209.205V246H1151.11V158.393ZM1255.34 282.795C1253.36 282.795 1251.49 282.678 1249.74 282.444C1247.99 282.211 1246.41 281.977 1245.01 281.743C1243.37 281.393 1241.79 281.043 1240.28 280.692V255.286C1240.98 255.637 1241.85 255.929 1242.9 256.162C1243.84 256.396 1244.83 256.571 1245.88 256.688C1247.05 256.805 1248.45 256.863 1250.09 256.863C1254.18 256.863 1257.62 255.987 1260.43 254.235C1263.35 252.6 1265.68 249.563 1267.43 245.124L1268.13 243.372L1226.26 158.393H1258.32L1278.12 201.321L1280.4 218.842H1282.85L1285.13 201.321L1301.78 158.393H1334.01L1297.4 245.124C1294.94 250.731 1292.37 255.87 1289.69 260.543C1287 265.215 1283.96 269.187 1280.57 272.457C1277.3 275.728 1273.57 278.239 1269.36 279.991C1265.27 281.86 1260.6 282.795 1255.34 282.795ZM1420.93 247.752C1415.67 247.752 1410.82 247.051 1406.38 245.65C1402.06 244.131 1398.32 241.853 1395.17 238.816C1392.02 235.779 1389.56 231.925 1387.81 227.252C1386.06 222.463 1385.18 216.798 1385.18 210.257V158.393H1415.67V201.496C1415.67 207.804 1417.3 212.651 1420.58 216.039C1423.96 219.426 1428.69 221.12 1434.77 221.12C1441.43 221.12 1446.27 219.309 1449.31 215.688C1452.46 211.95 1454.04 207.22 1454.04 201.496V158.393H1484.53V246H1454.04V230.756H1452.46C1451.06 234.027 1448.96 236.889 1446.16 239.342C1443.82 241.444 1440.61 243.372 1436.52 245.124C1432.43 246.876 1427.23 247.752 1420.93 247.752ZM1503.85 221.12L1550.63 183.799V183.274H1505.95V158.393H1592.16V183.274L1545.37 220.594V221.12H1593.91V246H1503.85V221.12Z" fill="#0C0C10"/>
<path d="M1350.39 247.752C1345.13 247.752 1340.93 246.35 1337.77 243.547C1334.62 240.627 1333.04 236.597 1333.04 231.457C1333.04 226.318 1334.62 222.346 1337.77 219.543C1340.93 216.623 1345.13 215.163 1350.39 215.163C1355.65 215.163 1359.85 216.623 1363 219.543C1366.16 222.346 1367.74 226.318 1367.74 231.457C1367.74 236.597 1366.16 240.627 1363 243.547C1359.85 246.35 1355.65 247.752 1350.39 247.752Z" fill="#FF9315"/>
<defs>
<clipPath id="clip0_24_2">
<rect width="333.737" height="386" fill="white"/>
</clipPath>
</defs>
</svg>
